<svg id="Layer_1" enable-background="new 0 0 512.186 512.186" height="512" viewBox="0 0 512.186 512.186" width="512" xmlns="http://www.w3.org/2000/svg"><g><g><ellipse cx="256.093" cy="256.093" fill="#ffeb00" rx="256.093" ry="256.008"/><path d="m256.093.085c-.03 0-.061.001-.091.001v512.013c.03 0 .061.001.091.001 141.436 0 256.093-114.618 256.093-256.008s-114.657-256.007-256.093-256.007z" fill="#fb0"/></g><g><path d="m293.967 208.292h.003c-32.425-38.87 20.332-84.399 53.961-50.902 36.652-34.811 85.259 15.134 53.961 50.902-.537.562-32.959 34.45-47.286 49.425-3.641 3.806-9.708 3.807-13.35.001-14.191-14.833-46.064-48.146-47.289-49.426z" fill="#c30010"/><path d="m110.21 208.292h.003c-32.425-38.87 20.332-84.399 53.961-50.902 36.652-34.811 85.259 15.134 53.961 50.902-.537.562-32.959 34.45-47.286 49.425-3.641 3.806-9.708 3.807-13.35.001-14.192-14.833-46.065-48.146-47.289-49.426z" fill="#ff001e"/></g><path d="m393.184 310.142h-274.368c-5.403 0-9.586 4.662-9.091 10.043 3.228 35.107 23.233 66.162 53.135 87.266 24.965-23.341 55.72-14.756 93.122-14.756 37.815 0 68.374-9.041 93.335 14.634 29.805-21.102 49.738-52.107 52.958-87.146.495-5.381-3.688-10.041-9.091-10.041z" fill="#132c63"/><path d="m393.184 310.142h-137.182v82.553c37.806.005 68.358-9.037 93.315 14.634 29.805-21.102 49.738-52.107 52.958-87.146.495-5.38-3.688-10.041-9.091-10.041z" fill="#000f35"/><path d="m162.86 407.45c25.336 17.882 57.776 28.62 93.14 28.62 35.445 0 67.955-10.786 93.317-28.742-24.961-23.675-55.52-36.656-93.335-36.656-37.402 0-68.157 13.438-93.122 36.778z" fill="#ff9ac9"/><path d="m256.002 436.07c35.445 0 67.954-10.786 93.315-28.742-24.957-23.671-55.509-36.651-93.315-36.656z" fill="#ff5ca8"/></g></svg>